<?xml version='1.0' encoding='ascii'?>
<svg xmlns="http://www.w3.org/2000/svg" xmlns:inkscape="http://www.inkscape.org/namespaces/inkscape" height="1000" version="1.1" width="5000">
    <g id="RenderLayer_LineSet" inkscape:groupmode="lineset" inkscape:label="RenderLayer_LineSet">
        <g id="fills" inkscape:groupmode="layer" inkscape:label="fills" xmlns:inkscape="http://www.inkscape.org/namespaces/inkscape">
            <path d=" M 394.810, 570.834 402.310, 572.500 416.477, 570.834 435.643, 561.875 451.477, 552.084 474.810, 532.500 491.477, 508.750 501.477, 485.000 506.477, 437.500 505.643, 409.375 499.810, 381.250 495.644, 367.188 488.143, 353.125 478.143, 339.063 463.977, 325.000 453.143, 317.500 438.143, 310.000 420.643, 304.167 403.143, 302.500 385.643, 303.333 368.143, 305.833 359.810, 309.583 351.893, 314.167 343.977, 319.792 339.810, 325.417 335.643, 336.667 334.810, 345.833 336.477, 355.000 341.477, 359.167 348.456, 361.667 360.435, 361.667 372.414, 358.333 384.393, 352.500 396.373, 348.333 408.352, 348.333 420.331, 351.667 429.810, 357.917 435.643, 364.167 444.810, 373.333 449.810, 380.417 455.643, 387.500 461.477, 400.000 465.643, 412.500 466.477, 419.531 467.310, 431.667 467.310, 439.167 466.477, 458.334 463.977, 472.396 458.143, 486.459 446.060, 504.167 433.977, 514.584 422.518, 520.834 411.060, 525.834 399.602, 532.500 388.143, 542.709 383.143, 550.365 383.143, 558.021 387.310, 565.677 394.810, 570.834  z" fill="rgb(153, 153, 153)" fill-opacity="1.0" fill_rule="evenodd" stroke="none" />
            <path d=" M 561.997, 496.875 554.497, 510.938 552.830, 525.000 555.330, 542.917 563.664, 556.667 574.497, 566.667 590.747, 572.500 602.205, 573.334 613.664, 570.834 632.830, 561.875 648.664, 552.084 671.997, 532.500 688.664, 508.750 698.664, 485.000 703.664, 437.500 702.830, 409.375 696.997, 381.250 692.830, 367.188 685.330, 353.125 675.330, 339.063 661.164, 325.000 650.330, 317.500 635.330, 310.000 617.830, 304.167 600.330, 302.500 582.830, 303.333 565.330, 305.833 556.997, 309.583 549.080, 314.167 541.164, 319.792 536.997, 325.417 532.830, 336.667 531.997, 345.833 533.664, 355.000 537.830, 364.167 545.747, 373.333 554.497, 380.417 569.497, 387.500 596.164, 400.000 616.997, 412.500 623.664, 419.531 625.330, 426.563 624.497, 433.594 621.997, 440.625 617.830, 447.656 609.497, 454.688 586.997, 468.750 576.164, 478.334 566.164, 489.844 561.997, 496.875  z" fill="rgb(153, 153, 153)" fill-opacity="1.0" fill_rule="evenodd" stroke="none" />
            <path d=" M 928.933, 655.834 947.162, 650.000 965.391, 642.500 997.162, 625.000 1028.933, 600.834 1060.703, 573.334 1075.808, 557.500 1092.474, 541.667 1118.307, 504.375 1137.474, 467.083 1149.141, 429.792 1153.308, 392.500 1150.808, 355.208 1139.974, 317.917 1118.307, 280.625 1102.474, 261.979 1079.974, 243.333 1059.141, 228.750 1034.974, 216.667 1017.579, 211.667 1000.183, 207.500 982.787, 205.000 965.391, 205.000 936.745, 208.333 908.099, 216.667 879.453, 229.167 850.808, 245.833 832.474, 260.000 819.974, 274.167 808.308, 291.250 799.974, 308.333 789.141, 338.333 784.141, 361.458 780.808, 384.583 779.141, 407.708 779.141, 430.833 780.808, 462.708 787.474, 494.584 795.808, 526.459 806.641, 558.334 819.974, 595.834 828.308, 614.584 841.641, 633.334 851.641, 642.500 867.474, 651.667 892.474, 659.167 910.703, 659.167 919.818, 658.334 928.933, 655.834  z" fill="rgb(153, 153, 153)" fill-opacity="1.0" fill_rule="evenodd" stroke="none" />
            <path d=" M 1414.768, 167.250 1396.018, 167.500 1358.518, 172.500 1343.935, 177.500 1329.352, 184.167 1300.185, 199.167 1285.602, 209.167 1271.018, 221.667 1256.435, 236.667 1241.852, 257.500 1231.018, 281.042 1223.518, 304.583 1217.685, 328.125 1213.519, 351.667 1209.352, 398.750 1210.185, 445.833 1211.852, 469.375 1216.018, 492.917 1220.185, 516.458 1225.185, 540.000 1231.852, 563.542 1241.852, 587.083 1252.685, 610.625 1266.852, 634.167 1301.018, 681.250 1323.519, 728.333 1328.518, 751.875 1330.185, 775.417 1333.518, 822.500 1336.852, 916.667 1522.685, 916.667 1522.685, 832.604 1524.352, 748.542 1526.018, 706.511 1531.019, 664.479 1542.685, 622.448 1563.518, 580.417 1586.019, 538.386 1606.019, 496.354 1613.519, 475.339 1621.019, 454.323 1626.852, 433.307 1630.185, 412.292 1631.019, 391.276 1628.519, 370.261 1625.185, 349.245 1620.185, 328.229 1612.685, 307.214 1602.685, 286.198 1589.352, 263.333 1575.185, 244.167 1559.185, 227.333 1539.768, 210.500 1504.352, 188.333 1468.935, 174.417 1433.519, 168.333 1414.768, 167.250  z" fill="rgb(153, 153, 153)" fill-opacity="1.0" fill_rule="evenodd" stroke="none" />
            <path d=" M 1740.770, 162.500 1720.250, 177.917 1704.416, 193.333 1691.083, 210.000 1678.583, 234.167 1671.083, 254.583 1665.250, 275.000 1659.416, 306.927 1654.416, 344.792 1653.583, 358.594 1652.750, 372.396 1656.916, 400.000 1671.916, 425.000 1680.250, 450.000 1686.083, 483.334 1687.750, 535.417 1691.083, 572.708 1692.750, 610.000 1696.916, 624.063 1704.416, 638.125 1720.666, 660.834 1736.916, 677.396 1765.250, 700.000 1781.083, 716.667 1787.749, 727.500 1791.083, 741.667 1794.416, 916.667 2039.416, 916.667 2039.416, 821.354 2041.916, 741.667 2048.583, 700.000 2058.583, 658.334 2067.750, 627.604 2080.250, 596.875 2087.750, 581.511 2096.083, 566.146 2111.083, 535.417 2128.583, 491.667 2145.250, 445.833 2154.416, 400.000 2155.250, 369.271 2151.083, 338.542 2142.750, 307.813 2129.416, 277.083 2111.916, 246.354 2088.583, 215.625 2070.250, 197.396 2048.166, 179.167 2030.250, 166.667 2007.750, 154.167 1961.916, 135.417 1932.541, 128.940 1903.166, 124.716 1871.864, 125.654 1840.562, 129.167 1777.958, 145.000 1759.364, 152.500 1740.770, 162.500  z" fill="rgb(153, 153, 153)" fill-opacity="1.0" fill_rule="evenodd" stroke="none" />
            <path d=" M 3599.444, 110.000 3567.777, 127.500 3536.110, 150.000 3513.610, 175.000 3491.110, 216.667 3481.944, 262.500 3480.277, 308.333 3482.777, 335.000 3493.611, 356.667 3516.110, 377.500 3524.444, 388.542 3528.610, 410.417 3527.777, 435.000 3470.277, 666.667 3470.277, 693.334 3477.777, 708.334 3492.777, 726.667 3506.944, 736.667 3526.111, 745.834 3562.777, 746.667 3592.860, 746.667 3597.194, 749.084 3599.444, 753.334 3599.444, 916.667 3966.110, 916.667 3966.110, 791.667 3969.444, 741.667 3977.777, 691.667 3988.611, 658.334 4001.944, 625.000 4012.777, 604.167 4041.111, 550.000 4064.027, 500.000 4076.111, 466.667 4086.110, 433.334 4091.944, 375.000 4089.444, 331.667 4079.444, 284.167 4066.944, 255.000 4051.111, 225.000 4016.944, 179.167 3983.692, 150.000 3936.944, 119.161 3882.777, 96.667 3834.860, 87.500 3782.777, 83.333 3721.111, 83.333 3659.444, 90.000 3629.444, 98.333 3599.444, 110.000  z" fill="rgb(153, 153, 153)" fill-opacity="1.0" fill_rule="evenodd" stroke="none" />
            <path d=" M 2850.392, 212.500 2843.725, 231.250 2841.225, 250.000 2836.225, 295.833 2834.558, 341.667 2836.225, 353.125 2841.225, 364.584 2860.392, 387.500 2872.058, 410.417 2872.892, 433.334 2859.559, 558.334 2847.892, 641.667 2847.892, 658.334 2851.225, 675.000 2867.475, 697.500 2883.725, 708.334 2917.892, 725.000 2954.558, 736.667 2962.058, 748.334 2962.058, 916.667 3291.225, 916.667 3292.059, 770.834 3293.725, 739.167 3298.725, 700.000 3308.725, 666.667 3317.892, 642.917 3327.058, 619.167 3340.392, 595.417 3354.142, 571.667 3377.892, 524.584 3397.058, 477.500 3411.225, 430.417 3417.892, 383.333 3417.059, 343.125 3408.725, 302.917 3402.059, 282.813 3395.392, 262.708 3385.392, 242.604 3366.225, 212.500 3347.892, 189.583 3326.225, 166.667 3306.225, 150.000 3280.392, 133.333 3247.058, 114.167 3199.558, 97.500 3159.142, 89.167 3118.725, 85.833 3087.684, 85.000 3056.642, 86.667 3025.600, 91.667 2994.559, 98.333 2955.808, 111.667 2917.058, 133.333 2893.725, 150.000 2870.392, 175.000 2850.392, 212.500  z" fill="rgb(153, 153, 153)" fill-opacity="1.0" fill_rule="evenodd" stroke="none" />
            <path d=" M 4306.077, 128.333 4286.182, 141.667 4266.286, 166.667 4252.536, 191.667 4238.786, 216.667 4231.286, 250.000 4227.119, 277.083 4229.619, 304.167 4232.119, 320.000 4237.119, 335.833 4241.286, 346.094 4243.786, 356.354 4241.286, 366.615 4234.619, 376.875 4209.620, 417.917 4184.619, 458.959 4175.453, 471.667 4171.286, 478.750 4169.619, 485.834 4169.619, 492.917 4171.286, 500.000 4175.036, 504.167 4178.786, 505.834 4186.286, 508.334 4195.869, 509.167 4205.453, 510.000 4215.453, 510.000 4220.453, 511.667 4222.953, 513.334 4225.452, 516.667 4227.119, 522.917 4227.119, 529.167 4224.620, 535.417 4218.786, 541.667 4215.453, 545.834 4207.953, 556.667 4206.286, 565.834 4207.953, 574.167 4211.286, 579.167 4215.453, 585.000 4211.286, 593.334 4211.286, 600.000 4215.453, 609.167 4227.119, 615.834 4237.953, 619.167 4229.619, 658.334 4227.119, 683.334 4227.119, 693.750 4231.286, 704.167 4237.119, 714.584 4244.619, 725.000 4267.119, 741.667 4287.120, 746.667 4324.411, 747.500 4347.119, 747.500 4351.286, 750.000 4352.952, 752.500 4352.119, 916.667 4741.286, 916.667 4741.286, 864.219 4741.286, 811.771 4742.120, 759.323 4746.286, 706.875 4758.786, 654.427 4779.619, 601.979 4810.453, 549.531 4832.953, 497.083 4847.952, 448.542 4857.119, 400.000 4852.119, 319.375 4842.119, 279.063 4826.286, 238.750 4812.119, 214.896 4795.453, 191.042 4772.536, 163.333 4749.619, 143.333 4727.120, 127.500 4699.619, 111.667 4655.453, 91.667 4592.953, 78.333 4511.286, 75.000 4458.786, 78.333 4402.328, 87.500 4345.869, 106.667 4306.077, 128.333  z" fill="rgb(153, 153, 153)" fill-opacity="1.0" fill_rule="evenodd" stroke="none" />
            <path d=" M 2716.376, 508.334 2754.293, 408.333 2756.376, 362.500 2749.710, 316.667 2736.376, 276.042 2713.876, 235.417 2681.376, 194.792 2661.376, 174.479 2633.876, 154.167 2612.626, 140.000 2591.376, 129.167 2562.418, 116.667 2528.876, 108.333 2475.543, 104.167 2428.668, 105.833 2381.793, 111.667 2334.918, 126.667 2288.043, 154.167 2253.043, 190.000 2235.543, 220.000 2223.876, 250.625 2218.043, 281.250 2214.710, 344.792 2217.210, 376.563 2223.876, 392.448 2232.209, 408.333 2238.876, 428.750 2243.876, 490.000 2248.876, 566.667 2252.209, 600.000 2258.043, 625.000 2270.543, 650.000 2287.210, 675.000 2313.876, 700.000 2323.876, 706.667 2333.876, 714.167 2343.043, 727.500 2345.543, 740.834 2345.543, 916.667 2627.209, 916.667 2627.209, 770.000 2630.543, 722.500 2640.543, 675.000 2653.876, 633.334 2716.376, 508.334 2653.876, 633.334  z" fill="rgb(153, 153, 153)" fill-opacity="1.0" fill_rule="evenodd" stroke="none" />
        </g>
        <g id="strokes" inkscape:groupmode="layer" inkscape:label="strokes">
            <path d=" M 2381.793, 111.667 2372.269, 114.715 2362.744, 117.762 2353.220, 120.810 2343.696, 123.858 2334.918, 126.667 2326.293, 131.727 2317.667, 136.787 2309.042, 141.847 2300.417, 146.907 2291.792, 151.968 2288.043, 154.167 2281.055, 161.321 2274.068, 168.474 2267.081, 175.628 2260.093, 182.782 2253.043, 190.000 2248.004, 198.638 2242.966, 207.276 2237.927, 215.914 2235.543, 220.000 2231.983, 229.345 2228.423, 238.690 2224.863, 248.035 2223.876, 250.625 2222.005, 260.449 2220.134, 270.272 2218.263, 280.095 2218.043, 281.250 2217.519, 291.236 2216.995, 301.223 2216.471, 311.209 2215.948, 321.195 2215.424, 331.182 2214.900, 341.168 2214.710, 344.792 2215.494, 354.761 2216.279, 364.730 2217.063, 374.699 2217.210, 376.563 2221.079, 385.784 2223.876, 392.448 2228.522, 401.304 2232.209, 408.333 2235.313, 417.840 2238.417, 427.346 2238.876, 428.750 2239.690, 438.717 2240.503, 448.684 2241.317, 458.651 2242.131, 468.618 2242.944, 478.584 2243.758, 488.551 2243.876, 490.000 2244.527, 499.979 2245.178, 509.958 2245.829, 519.937 2246.479, 529.915 2247.130, 539.894 2247.781, 549.873 2248.432, 559.852 2248.876, 566.667 2249.871, 576.617 2250.866, 586.568 2251.861, 596.518 2252.209, 600.000 2254.482, 609.739 2256.754, 619.477 2258.043, 625.000 2262.515, 633.944 2266.987, 642.889 2270.543, 650.000 2276.090, 658.321 2281.637, 666.641 2287.210, 675.000 2294.505, 681.840 2301.801, 688.679 2309.096, 695.518 2313.876, 700.000 2322.197, 705.547 2323.876, 706.667 2331.876, 712.667 2333.876, 714.167 2339.542, 722.407 2343.043, 727.500 2344.886, 737.329 2345.543, 740.834 2345.543, 750.834 2345.543, 760.834 2345.543, 770.834 2345.543, 780.834 2345.543, 790.834 2345.543, 800.834 2345.543, 810.834 2345.543, 820.834 2345.543, 830.834 2345.543, 840.834 2345.543, 850.834 2345.543, 860.834 2345.543, 870.834 2345.543, 880.834 2345.543, 890.834 2345.543, 900.834 2345.543, 910.834 2345.543, 916.667 2355.543, 916.667 2365.543, 916.667 2375.543, 916.667 2385.543, 916.667 2395.543, 916.667 2405.543, 916.667 2415.543, 916.667 2425.543, 916.667 2435.543, 916.667 2445.543, 916.667 2455.543, 916.667 2465.543, 916.667 2475.543, 916.667 2485.543, 916.667 2495.543, 916.667 2505.543, 916.667 2515.543, 916.667 2525.543, 916.667 2535.543, 916.667 2545.543, 916.667 2555.543, 916.667 2565.543, 916.667 2575.543, 916.667 2585.543, 916.667 2595.543, 916.667 2605.543, 916.667 2615.543, 916.667 2627.209, 916.667 2627.209, 906.667 2627.209, 896.667 2627.209, 886.667 2627.209, 876.667 2627.209, 866.667 2627.209, 856.667 2627.209, 846.667 2627.209, 836.667 2627.209, 826.667 2627.209, 816.667 2627.209, 806.667 2627.209, 796.667 2627.209, 786.667 2627.209, 776.667 2627.209, 770.000 2627.910, 760.025 2628.610, 750.049 2629.310, 740.074 2630.010, 730.098 2630.543, 722.500 2632.603, 712.715 2634.663, 702.929 2636.723, 693.144 2638.783, 683.358 2640.543, 675.000 2643.591, 665.476 2646.638, 655.952 2649.686, 646.427 2652.734, 636.903 2653.876, 633.334 2658.348, 624.389 2662.821, 615.445 2667.292, 606.501 2671.765, 597.556 2676.237, 588.612 2680.709, 579.668 2685.181, 570.724 2689.653, 561.779 2694.125, 552.835 2698.598, 543.891 2703.070, 534.947 2707.542, 526.002 2712.014, 517.058 2716.376, 508.334 2719.922, 498.983 2723.467, 489.633 2727.012, 480.282 2730.558, 470.932 2734.103, 461.581 2737.648, 452.231 2741.194, 442.881 2744.739, 433.530 2748.284, 424.180 2751.830, 414.829 2754.293, 408.333 2754.747, 398.344 2755.201, 388.354 2755.655, 378.364 2756.109, 368.375 2756.376, 362.500 2754.937, 352.604 2753.498, 342.708 2752.058, 332.813 2750.619, 322.917 2749.710, 316.667 2746.591, 307.166 2743.473, 297.664 2740.354, 288.163 2737.236, 278.661 2736.376, 276.042 2731.531, 267.294 2726.686, 258.546 2721.841, 249.798 2716.996, 241.050 2713.876, 235.417 2707.629, 227.608 2701.382, 219.799 2695.135, 211.991 2688.888, 204.182 2682.642, 196.373 2681.376, 194.792 2674.360, 187.666 2667.344, 180.541 2661.376, 174.479 2653.333, 168.538 2645.289, 162.597 2637.245, 156.655 2633.876, 154.167 2625.556, 148.620 2617.235, 143.073 2612.626, 140.000 2603.717, 135.458 2594.808, 130.916 2591.376, 129.167 2582.195, 125.204 2573.014, 121.241 2563.833, 117.278 2562.418, 116.667 2552.713, 114.256 2543.008, 111.844 2533.303, 109.433 2528.876, 108.333 2518.907, 107.555 2508.937, 106.776 2498.968, 105.997 2488.998, 105.218 2479.028, 104.439 2475.543, 104.167 2465.549, 104.522 2455.555, 104.878 2445.562, 105.233 2435.568, 105.588 2428.668, 105.833 2418.744, 107.068 2408.821, 108.303 2398.897, 109.538 2388.974, 110.773 2381.793, 111.667 " fill="none" stroke="rgb(0, 0, 0)" stroke-linecap="butt" stroke-linejoin="mitter" stroke-opacity="1.0" stroke-width="3.0" />
            <path d=" M 2653.876, 633.334 2658.348, 624.389 2662.821, 615.445 2667.292, 606.501 2671.765, 597.556 2676.237, 588.612 2680.709, 579.668 2685.181, 570.724 2689.653, 561.779 2694.125, 552.835 2698.598, 543.891 2703.070, 534.947 2707.542, 526.002 2712.014, 517.058 2716.376, 508.334 " fill="none" stroke="rgb(0, 0, 0)" stroke-linecap="butt" stroke-linejoin="mitter" stroke-opacity="1.0" stroke-width="3.0" />
            <path d=" M 4306.077, 128.333 4297.770, 133.901 4289.463, 139.468 4286.182, 141.667 4279.955, 149.491 4273.728, 157.316 4267.500, 165.141 4266.286, 166.667 4261.467, 175.429 4256.648, 184.191 4252.536, 191.667 4247.717, 200.429 4242.897, 209.191 4238.786, 216.667 4236.591, 226.423 4234.396, 236.179 4232.200, 245.935 4231.286, 250.000 4229.765, 259.884 4228.245, 269.768 4227.119, 277.083 4228.039, 287.041 4228.958, 296.999 4229.619, 304.167 4231.179, 314.044 4232.119, 320.000 4235.130, 329.536 4237.119, 335.833 4240.882, 345.099 4241.286, 346.094 4243.653, 355.810 4243.786, 356.354 4241.418, 366.070 4241.286, 366.615 4235.837, 375.000 4234.619, 376.875 4229.417, 385.416 4224.215, 393.956 4219.013, 402.496 4213.811, 411.037 4209.620, 417.917 4204.417, 426.457 4199.215, 434.997 4194.013, 443.538 4188.811, 452.078 4184.619, 458.959 4178.769, 467.069 4175.453, 471.667 4171.286, 478.750 4169.619, 485.834 4169.619, 492.917 4171.286, 500.000 4175.036, 504.167 4178.786, 505.834 4186.286, 508.334 4195.869, 509.167 4205.453, 510.000 4215.453, 510.000 4220.453, 511.667 4222.953, 513.334 4225.452, 516.667 4227.119, 522.917 4227.119, 529.167 4224.620, 535.417 4218.786, 541.667 4215.453, 545.834 4209.760, 554.055 4207.953, 556.667 4206.286, 565.834 4207.953, 574.167 4211.286, 579.167 4215.453, 585.000 4211.286, 593.334 4211.286, 600.000 4215.453, 609.167 4224.135, 614.128 4227.119, 615.834 4236.677, 618.774 4237.953, 619.167 4235.872, 628.948 4233.791, 638.729 4231.709, 648.510 4229.619, 658.334 4228.625, 668.284 4227.629, 678.234 4227.119, 683.334 4227.119, 693.334 4227.119, 693.750 4230.833, 703.035 4231.286, 704.167 4236.172, 712.892 4237.119, 714.584 4242.962, 722.699 4244.619, 725.000 4252.655, 730.953 4260.690, 736.905 4267.119, 741.667 4276.820, 744.092 4286.522, 746.517 4287.120, 746.667 4297.117, 746.890 4307.114, 747.114 4317.112, 747.337 4324.411, 747.500 4334.411, 747.500 4344.411, 747.500 4347.119, 747.500 4351.286, 750.000 4352.952, 752.500 4352.901, 762.500 4352.851, 772.500 4352.800, 782.500 4352.750, 792.500 4352.699, 802.500 4352.648, 812.499 4352.597, 822.499 4352.546, 832.499 4352.496, 842.499 4352.445, 852.499 4352.394, 862.499 4352.343, 872.499 4352.293, 882.499 4352.242, 892.498 4352.191, 902.498 4352.141, 912.498 4352.119, 916.667 4362.119, 916.667 4372.119, 916.667 4382.119, 916.667 4392.119, 916.667 4402.119, 916.667 4412.119, 916.667 4422.119, 916.667 4432.119, 916.667 4442.119, 916.667 4452.120, 916.667 4462.119, 916.667 4472.119, 916.667 4482.120, 916.667 4492.119, 916.667 4502.119, 916.667 4512.120, 916.667 4522.120, 916.667 4532.119, 916.667 4542.119, 916.667 4552.120, 916.667 4562.119, 916.667 4572.119, 916.667 4582.120, 916.667 4592.119, 916.667 4602.119, 916.667 4612.120, 916.667 4622.119, 916.667 4632.119, 916.667 4642.120, 916.667 4652.119, 916.667 4662.120, 916.667 4672.120, 916.667 4682.119, 916.667 4692.120, 916.667 4702.120, 916.667 4712.119, 916.667 4722.120, 916.667 4732.120, 916.667 4741.286, 916.667 4741.286, 906.667 4741.286, 896.667 4741.286, 886.667 4741.286, 876.667 4741.286, 866.667 4741.286, 864.219 4741.286, 854.219 4741.286, 844.219 4741.286, 834.219 4741.286, 824.219 4741.286, 814.219 4741.286, 811.771 4741.445, 801.772 4741.604, 791.774 4741.763, 781.775 4741.921, 771.776 4742.081, 761.777 4742.120, 759.323 4742.911, 749.354 4743.703, 739.386 4744.495, 729.417 4745.287, 719.449 4746.079, 709.480 4746.286, 706.875 4748.604, 697.148 4750.922, 687.420 4753.241, 677.693 4755.560, 667.965 4757.878, 658.237 4758.786, 654.427 4762.478, 645.134 4766.169, 635.840 4769.861, 626.546 4773.552, 617.253 4777.244, 607.959 4779.619, 601.979 4784.687, 593.359 4789.755, 584.738 4794.823, 576.117 4799.891, 567.497 4804.959, 558.876 4810.027, 550.255 4810.453, 549.531 4814.395, 540.341 4818.338, 531.151 4822.280, 521.961 4826.223, 512.771 4830.165, 503.581 4832.953, 497.083 4835.905, 487.529 4838.857, 477.975 4841.810, 468.421 4844.762, 458.867 4847.714, 449.312 4847.952, 448.542 4849.808, 438.716 4851.664, 428.889 4853.519, 419.063 4855.375, 409.237 4857.119, 400.000 4856.500, 390.019 4855.881, 380.039 4855.262, 370.058 4854.643, 360.077 4854.024, 350.096 4853.405, 340.115 4852.787, 330.134 4852.119, 319.375 4849.711, 309.669 4847.304, 299.964 4844.896, 290.258 4842.488, 280.552 4842.119, 279.063 4838.463, 269.755 4834.808, 260.447 4831.152, 251.139 4827.496, 241.831 4826.286, 238.750 4821.179, 230.152 4816.073, 221.554 4812.119, 214.896 4806.392, 206.699 4800.665, 198.501 4795.453, 191.042 4789.080, 183.336 4782.706, 175.630 4776.333, 167.924 4772.536, 163.333 4765.001, 156.758 4757.467, 150.183 4749.933, 143.608 4749.619, 143.333 4741.441, 137.578 4733.263, 131.824 4727.120, 127.500 4718.453, 122.511 4709.787, 117.521 4701.121, 112.531 4699.619, 111.667 4690.510, 107.542 4681.400, 103.417 4672.291, 99.292 4663.181, 95.167 4655.453, 91.667 4645.673, 89.580 4635.893, 87.494 4626.113, 85.408 4616.333, 83.321 4606.553, 81.235 4596.773, 79.148 4592.953, 78.333 4582.961, 77.926 4572.969, 77.518 4562.978, 77.110 4552.986, 76.702 4542.994, 76.294 4533.002, 75.887 4523.011, 75.479 4513.019, 75.071 4511.286, 75.000 4501.306, 75.634 4491.326, 76.267 4481.346, 76.901 4471.366, 77.535 4461.386, 78.168 4458.786, 78.333 4448.915, 79.936 4439.044, 81.539 4429.174, 83.141 4419.303, 84.744 4409.432, 86.347 4402.328, 87.500 4392.858, 90.715 4383.389, 93.929 4373.920, 97.144 4364.451, 100.359 4354.981, 103.573 4345.869, 106.667 4337.086, 111.449 4328.304, 116.231 4319.521, 121.013 4310.739, 125.795 4306.077, 128.333 " fill="none" stroke="rgb(0, 0, 0)" stroke-linecap="butt" stroke-linejoin="mitter" stroke-opacity="1.0" stroke-width="3.0" />
            <path d=" M 2850.392, 212.500 2847.042, 221.922 2843.725, 231.250 2842.403, 241.162 2841.225, 250.000 2840.141, 259.941 2839.056, 269.882 2837.972, 279.823 2836.887, 289.764 2836.225, 295.833 2835.862, 305.827 2835.498, 315.820 2835.135, 325.814 2834.771, 335.807 2834.558, 341.667 2835.998, 351.563 2836.225, 353.125 2840.225, 362.291 2841.225, 364.584 2847.641, 372.254 2854.056, 379.925 2860.392, 387.500 2864.928, 396.412 2869.465, 405.323 2872.058, 410.417 2872.422, 420.410 2872.785, 430.404 2872.892, 433.334 2871.831, 443.277 2870.771, 453.221 2869.710, 463.164 2868.649, 473.108 2867.589, 483.052 2866.528, 492.995 2865.467, 502.939 2864.406, 512.882 2863.346, 522.826 2862.285, 532.769 2861.225, 542.713 2860.164, 552.657 2859.559, 558.334 2858.172, 568.237 2856.786, 578.140 2855.399, 588.044 2854.013, 597.947 2852.626, 607.851 2851.240, 617.754 2849.853, 627.657 2848.467, 637.561 2847.892, 641.667 2847.892, 651.667 2847.892, 658.334 2849.853, 668.139 2851.225, 675.000 2857.080, 683.107 2862.935, 691.214 2867.475, 697.500 2875.796, 703.047 2883.725, 708.334 2892.713, 712.718 2901.700, 717.102 2910.688, 721.486 2917.892, 725.000 2927.421, 728.032 2936.950, 731.064 2946.480, 734.096 2954.558, 736.667 2959.966, 745.079 2962.058, 748.334 2962.058, 758.334 2962.058, 768.334 2962.058, 778.334 2962.058, 788.334 2962.058, 798.334 2962.058, 808.334 2962.058, 818.334 2962.058, 828.334 2962.058, 838.334 2962.058, 848.334 2962.058, 858.334 2962.058, 868.334 2962.058, 878.334 2962.058, 888.334 2962.058, 898.334 2962.058, 908.334 2962.058, 916.667 2972.058, 916.667 2982.058, 916.667 2992.058, 916.667 3002.058, 916.667 3012.058, 916.667 3022.058, 916.667 3032.058, 916.667 3042.058, 916.667 3052.058, 916.667 3062.058, 916.667 3072.058, 916.667 3082.058, 916.667 3092.058, 916.667 3102.058, 916.667 3112.058, 916.667 3122.058, 916.667 3132.058, 916.667 3142.058, 916.667 3152.058, 916.667 3162.058, 916.667 3172.058, 916.667 3182.058, 916.667 3192.058, 916.667 3202.058, 916.667 3212.058, 916.667 3222.058, 916.667 3232.058, 916.667 3242.058, 916.667 3252.058, 916.667 3262.058, 916.667 3272.058, 916.667 3282.058, 916.667 3291.225, 916.667 3291.282, 906.667 3291.339, 896.667 3291.396, 886.667 3291.454, 876.667 3291.511, 866.668 3291.568, 856.668 3291.625, 846.668 3291.682, 836.668 3291.740, 826.668 3291.797, 816.668 3291.854, 806.669 3291.911, 796.669 3291.968, 786.669 3292.025, 776.669 3292.059, 770.834 3292.584, 760.847 3293.110, 750.861 3293.635, 740.875 3293.725, 739.167 3294.991, 729.247 3296.258, 719.328 3297.524, 709.408 3298.725, 700.000 3301.598, 690.422 3304.472, 680.844 3307.345, 671.265 3308.725, 666.667 3312.326, 657.338 3315.927, 648.008 3317.892, 642.917 3321.492, 633.588 3325.093, 624.258 3327.058, 619.167 3331.954, 610.447 3336.849, 601.727 3340.392, 595.417 3345.402, 586.763 3350.412, 578.108 3354.142, 571.667 3358.646, 562.738 3363.149, 553.810 3367.653, 544.882 3372.156, 535.953 3376.660, 527.025 3377.892, 524.584 3381.662, 515.322 3385.432, 506.060 3389.203, 496.798 3392.973, 487.536 3396.744, 478.274 3397.058, 477.500 3399.940, 467.924 3402.821, 458.348 3405.702, 448.772 3408.583, 439.197 3411.225, 430.417 3412.627, 420.516 3414.029, 410.614 3415.431, 400.713 3416.833, 390.812 3417.892, 383.333 3417.685, 373.336 3417.477, 363.338 3417.270, 353.340 3417.059, 343.125 3415.029, 333.333 3413.000, 323.541 3410.970, 313.749 3408.941, 303.958 3408.725, 302.917 3405.578, 293.425 3402.430, 283.933 3402.059, 282.813 3398.911, 273.321 3395.763, 263.829 3395.392, 262.708 3390.938, 253.755 3386.485, 244.801 3385.392, 242.604 3380.021, 234.169 3374.650, 225.734 3369.280, 217.298 3366.225, 212.500 3359.978, 204.691 3353.731, 196.883 3347.892, 189.583 3341.021, 182.317 3334.152, 175.051 3327.281, 167.784 3326.225, 166.667 3318.543, 160.265 3310.861, 153.863 3306.225, 150.000 3297.822, 144.579 3289.419, 139.158 3281.016, 133.736 3280.392, 133.333 3271.722, 128.349 3263.053, 123.364 3254.385, 118.379 3247.058, 114.167 3237.622, 110.856 3228.187, 107.545 3218.750, 104.234 3209.314, 100.923 3199.558, 97.500 3189.764, 95.481 3179.970, 93.461 3170.177, 91.442 3160.383, 89.423 3159.142, 89.167 3149.176, 88.345 3139.209, 87.523 3129.243, 86.701 3119.277, 85.879 3118.725, 85.833 3108.729, 85.565 3098.732, 85.297 3088.736, 85.028 3087.684, 85.000 3077.698, 85.536 3067.712, 86.072 3057.727, 86.609 3056.642, 86.667 3046.769, 88.257 3036.896, 89.847 3027.023, 91.438 3025.600, 91.667 3015.823, 93.767 3006.046, 95.866 2996.269, 97.966 2994.559, 98.333 2985.103, 101.587 2975.647, 104.841 2966.191, 108.094 2956.735, 111.348 2955.808, 111.667 2947.080, 116.547 2938.352, 121.427 2929.624, 126.308 2920.895, 131.188 2917.058, 133.333 2908.921, 139.146 2900.784, 144.958 2893.725, 150.000 2886.902, 157.311 2880.079, 164.621 2873.256, 171.932 2870.392, 175.000 2865.686, 183.824 2860.980, 192.647 2856.274, 201.471 2851.568, 210.294 2850.392, 212.500 " fill="none" stroke="rgb(0, 0, 0)" stroke-linecap="butt" stroke-linejoin="mitter" stroke-opacity="1.0" stroke-width="3.0" />
            <path d=" M 3599.444, 110.000 3590.691, 114.837 3581.939, 119.674 3573.187, 124.511 3567.777, 127.500 3559.625, 133.292 3551.474, 139.084 3543.322, 144.876 3536.110, 150.000 3529.421, 157.433 3522.731, 164.866 3516.042, 172.299 3513.610, 175.000 3508.859, 183.799 3504.107, 192.598 3499.356, 201.397 3494.604, 210.196 3491.110, 216.667 3489.149, 226.473 3487.188, 236.278 3485.227, 246.084 3483.266, 255.890 3481.944, 262.500 3481.580, 272.494 3481.217, 282.487 3480.854, 292.480 3480.490, 302.474 3480.277, 308.333 3481.210, 318.290 3482.144, 328.246 3482.777, 335.000 3487.249, 343.944 3491.721, 352.889 3493.611, 356.667 3500.948, 363.461 3508.286, 370.255 3515.623, 377.049 3516.110, 377.500 3522.135, 385.482 3524.444, 388.542 3526.315, 398.365 3528.186, 408.189 3528.610, 410.417 3528.272, 420.411 3527.933, 430.405 3527.777, 435.000 3525.368, 444.706 3522.959, 454.411 3520.551, 464.117 3518.142, 473.822 3515.733, 483.528 3513.324, 493.233 3510.915, 502.939 3508.506, 512.644 3506.097, 522.350 3503.688, 532.055 3501.279, 541.761 3498.870, 551.466 3496.461, 561.172 3494.052, 570.877 3491.643, 580.583 3489.234, 590.288 3486.825, 599.994 3484.417, 609.699 3482.008, 619.405 3479.599, 629.111 3477.190, 638.816 3474.781, 648.522 3472.372, 658.227 3470.277, 666.667 3470.277, 676.667 3470.277, 686.667 3470.277, 693.334 3474.749, 702.278 3477.777, 708.334 3484.109, 716.073 3490.442, 723.813 3492.777, 726.667 3500.947, 732.434 3506.944, 736.667 3515.965, 740.981 3524.987, 745.296 3526.111, 745.834 3536.108, 746.061 3546.105, 746.288 3556.103, 746.515 3562.777, 746.667 3572.777, 746.667 3582.777, 746.667 3592.860, 746.667 3597.194, 749.084 3599.444, 753.334 3599.444, 763.334 3599.444, 773.334 3599.444, 783.334 3599.444, 793.334 3599.444, 803.334 3599.444, 813.334 3599.444, 823.334 3599.444, 833.334 3599.444, 843.334 3599.444, 853.334 3599.444, 863.334 3599.444, 873.334 3599.444, 883.334 3599.444, 893.334 3599.444, 903.334 3599.444, 913.334 3599.444, 916.667 3609.444, 916.667 3619.444, 916.667 3629.444, 916.667 3639.444, 916.667 3649.444, 916.667 3659.444, 916.667 3669.444, 916.667 3679.444, 916.667 3689.444, 916.667 3699.444, 916.667 3709.444, 916.667 3719.444, 916.667 3729.444, 916.667 3739.444, 916.667 3749.444, 916.667 3759.444, 916.667 3769.444, 916.667 3779.444, 916.667 3789.444, 916.667 3799.444, 916.667 3809.444, 916.667 3819.444, 916.667 3829.444, 916.667 3839.444, 916.667 3849.444, 916.667 3859.444, 916.667 3869.444, 916.667 3879.444, 916.667 3889.444, 916.667 3899.444, 916.667 3909.444, 916.667 3919.444, 916.667 3929.444, 916.667 3939.444, 916.667 3949.444, 916.667 3959.444, 916.667 3966.110, 916.667 3966.110, 906.667 3966.110, 896.667 3966.110, 886.667 3966.110, 876.667 3966.110, 866.667 3966.110, 856.667 3966.110, 846.667 3966.110, 836.667 3966.110, 826.667 3966.110, 816.667 3966.110, 806.667 3966.110, 796.667 3966.110, 791.667 3966.776, 781.689 3967.441, 771.711 3968.106, 761.733 3968.771, 751.755 3969.444, 741.667 3971.088, 731.803 3972.732, 721.939 3974.376, 712.075 3976.020, 702.211 3977.664, 692.347 3977.777, 691.667 3980.868, 682.157 3983.959, 672.646 3987.050, 663.136 3988.611, 658.334 3992.324, 649.049 3996.038, 639.764 3999.752, 630.479 4001.944, 625.000 4006.557, 616.128 4011.171, 607.256 4012.777, 604.167 4017.412, 595.306 4022.047, 586.445 4026.682, 577.584 4031.317, 568.723 4035.952, 559.862 4040.587, 551.001 4041.111, 550.000 4045.277, 540.910 4049.444, 531.819 4053.610, 522.728 4057.777, 513.638 4061.943, 504.547 4064.027, 500.000 4067.435, 490.599 4070.843, 481.198 4074.251, 471.796 4076.111, 466.667 4078.984, 457.089 4081.857, 447.510 4084.731, 437.932 4086.110, 433.334 4087.105, 423.383 4088.100, 413.433 4089.095, 403.482 4090.091, 393.532 4091.085, 383.582 4091.944, 375.000 4091.368, 365.017 4090.792, 355.033 4090.216, 345.050 4089.640, 335.067 4089.444, 331.667 4087.384, 321.881 4085.324, 312.096 4083.264, 302.310 4081.204, 292.525 4079.444, 284.167 4075.505, 274.975 4071.566, 265.784 4067.626, 256.593 4066.944, 255.000 4062.276, 246.156 4057.609, 237.312 4052.941, 228.469 4051.111, 225.000 4045.134, 216.983 4039.157, 208.965 4033.181, 200.948 4027.204, 192.930 4021.227, 184.913 4016.944, 179.167 4009.426, 172.573 4001.908, 165.978 3994.391, 159.384 3986.873, 152.790 3983.692, 150.000 3975.345, 144.494 3966.998, 138.987 3958.650, 133.480 3950.303, 127.974 3941.956, 122.467 3936.944, 119.161 3927.708, 115.325 3918.473, 111.490 3909.238, 107.655 3900.002, 103.820 3890.767, 99.985 3882.777, 96.667 3872.955, 94.788 3863.133, 92.909 3853.312, 91.030 3843.490, 89.151 3834.860, 87.500 3824.892, 86.703 3814.924, 85.905 3804.956, 85.108 3794.988, 84.310 3785.020, 83.513 3782.777, 83.333 3772.777, 83.333 3762.777, 83.333 3752.777, 83.333 3742.777, 83.333 3732.777, 83.333 3722.777, 83.333 3721.111, 83.333 3711.168, 84.408 3701.226, 85.483 3691.284, 86.558 3681.342, 87.633 3671.400, 88.708 3661.458, 89.782 3659.444, 90.000 3649.809, 92.677 3640.173, 95.353 3630.538, 98.029 3629.444, 98.333 3620.124, 101.958 3610.804, 105.582 3601.484, 109.207 3599.444, 110.000 " fill="none" stroke="rgb(0, 0, 0)" stroke-linecap="butt" stroke-linejoin="mitter" stroke-opacity="1.0" stroke-width="3.0" />
            <path d=" M 1740.770, 162.500 1732.775, 168.507 1724.780, 174.513 1720.250, 177.917 1713.085, 184.893 1705.920, 191.869 1704.416, 193.333 1698.169, 201.142 1691.922, 208.951 1691.083, 210.000 1686.489, 218.882 1681.894, 227.765 1678.583, 234.167 1675.135, 243.554 1671.686, 252.940 1671.083, 254.583 1668.336, 264.199 1665.588, 273.814 1665.250, 275.000 1663.452, 284.837 1661.655, 294.674 1659.858, 304.512 1659.416, 306.927 1658.107, 316.841 1656.798, 326.755 1655.489, 336.669 1654.416, 344.792 1653.813, 354.774 1653.583, 358.594 1652.980, 368.576 1652.750, 372.396 1654.242, 382.284 1655.734, 392.172 1656.916, 400.000 1662.061, 408.575 1667.206, 417.150 1671.916, 425.000 1675.078, 434.487 1678.241, 443.974 1680.250, 450.000 1681.973, 459.851 1683.697, 469.701 1685.421, 479.551 1686.083, 483.334 1686.403, 493.328 1686.723, 503.323 1687.042, 513.318 1687.362, 523.313 1687.682, 533.308 1687.750, 535.417 1688.640, 545.377 1689.530, 555.337 1690.420, 565.298 1691.083, 572.708 1691.529, 582.699 1691.976, 592.689 1692.422, 602.679 1692.750, 610.000 1695.590, 619.588 1696.916, 624.063 1701.622, 632.886 1704.416, 638.125 1710.235, 646.257 1716.055, 654.390 1720.666, 660.834 1727.669, 667.972 1734.673, 675.110 1736.916, 677.396 1744.733, 683.632 1752.550, 689.869 1760.367, 696.105 1765.250, 700.000 1772.137, 707.250 1779.025, 714.500 1781.083, 716.667 1786.324, 725.184 1787.749, 727.500 1790.040, 737.234 1791.083, 741.667 1791.273, 751.665 1791.464, 761.663 1791.654, 771.661 1791.845, 781.660 1792.035, 791.658 1792.225, 801.656 1792.416, 811.654 1792.606, 821.652 1792.797, 831.651 1792.987, 841.649 1793.178, 851.647 1793.368, 861.645 1793.559, 871.643 1793.749, 881.641 1793.939, 891.640 1794.130, 901.638 1794.320, 911.636 1794.416, 916.667 1804.416, 916.667 1814.416, 916.667 1824.416, 916.667 1834.416, 916.667 1844.416, 916.667 1854.416, 916.667 1864.416, 916.667 1874.416, 916.667 1884.416, 916.667 1894.416, 916.667 1904.416, 916.667 1914.416, 916.667 1924.416, 916.667 1934.416, 916.667 1944.416, 916.667 1954.416, 916.667 1964.416, 916.667 1974.416, 916.667 1984.416, 916.667 1994.416, 916.667 2004.416, 916.667 2014.416, 916.667 2024.416, 916.667 2034.416, 916.667 2039.416, 916.667 2039.416, 906.667 2039.416, 896.667 2039.416, 886.667 2039.416, 876.667 2039.416, 866.667 2039.416, 856.667 2039.416, 846.667 2039.416, 836.667 2039.416, 826.667 2039.416, 821.354 2039.730, 811.359 2040.043, 801.364 2040.357, 791.369 2040.671, 781.374 2040.984, 771.379 2041.298, 761.384 2041.611, 751.389 2041.916, 741.667 2043.496, 731.792 2045.076, 721.918 2046.656, 712.044 2048.236, 702.169 2048.583, 700.000 2050.917, 690.276 2053.250, 680.552 2055.584, 670.829 2057.918, 661.105 2058.583, 658.334 2061.441, 648.751 2064.300, 639.168 2067.158, 629.585 2067.750, 627.604 2071.518, 618.341 2075.286, 609.078 2079.053, 599.816 2080.250, 596.875 2084.636, 587.889 2087.750, 581.511 2092.517, 572.720 2096.083, 566.146 2100.469, 557.159 2104.856, 548.173 2109.243, 539.186 2111.083, 535.417 2114.797, 526.132 2118.511, 516.847 2122.225, 507.562 2125.938, 498.278 2128.583, 491.667 2132.000, 482.269 2135.418, 472.871 2138.835, 463.473 2142.253, 454.075 2145.250, 445.833 2147.211, 436.028 2149.172, 426.222 2151.133, 416.416 2153.094, 406.610 2154.416, 400.000 2154.687, 390.004 2154.958, 380.008 2155.229, 370.011 2155.250, 369.271 2153.906, 359.362 2152.562, 349.452 2151.219, 339.543 2151.083, 338.542 2148.466, 328.890 2145.848, 319.239 2143.231, 309.588 2142.750, 307.813 2138.769, 298.639 2134.789, 289.465 2130.808, 280.292 2129.416, 277.083 2124.468, 268.394 2119.519, 259.704 2114.570, 251.015 2111.916, 246.354 2105.869, 238.390 2099.821, 230.426 2093.774, 222.462 2088.583, 215.625 2081.492, 208.574 2074.400, 201.523 2070.250, 197.396 2062.538, 191.030 2054.826, 184.664 2048.166, 179.167 2039.965, 173.445 2031.764, 167.723 2030.250, 166.667 2021.508, 161.810 2012.766, 156.954 2007.750, 154.167 1998.494, 150.380 1989.239, 146.594 1979.983, 142.808 1970.728, 139.022 1961.916, 135.417 1952.151, 133.264 1942.385, 131.110 1932.541, 128.940 1922.643, 127.517 1912.745, 126.093 1903.166, 124.716 1893.171, 125.016 1883.175, 125.315 1873.180, 125.614 1871.864, 125.654 1861.927, 126.769 1851.989, 127.884 1842.051, 129.000 1840.562, 129.167 1830.867, 131.619 1821.172, 134.071 1811.478, 136.523 1801.783, 138.974 1792.088, 141.426 1782.394, 143.878 1777.958, 145.000 1768.684, 148.741 1759.364, 152.500 1750.557, 157.237 1741.750, 161.973 1740.770, 162.500 " fill="none" stroke="rgb(0, 0, 0)" stroke-linecap="butt" stroke-linejoin="mitter" stroke-opacity="1.0" stroke-width="3.0" />
            <path d=" M 1414.768, 167.250 1404.769, 167.383 1396.018, 167.500 1386.106, 168.822 1376.194, 170.143 1366.282, 171.465 1358.518, 172.500 1349.059, 175.743 1343.935, 177.500 1334.840, 181.658 1329.352, 184.167 1320.459, 188.740 1311.566, 193.314 1302.673, 197.887 1300.185, 199.167 1291.938, 204.822 1285.602, 209.167 1278.009, 215.675 1271.018, 221.667 1264.048, 228.837 1257.077, 236.007 1256.435, 236.667 1250.701, 244.859 1244.966, 253.051 1241.852, 257.500 1237.671, 266.584 1233.491, 275.669 1231.018, 281.042 1227.983, 290.570 1224.947, 300.098 1223.518, 304.583 1221.113, 314.290 1218.708, 323.996 1217.685, 328.125 1215.942, 337.972 1214.200, 347.819 1213.519, 351.667 1212.637, 361.628 1211.755, 371.589 1210.874, 381.550 1209.992, 391.511 1209.352, 398.750 1209.529, 408.749 1209.706, 418.747 1209.883, 428.745 1210.060, 438.744 1210.185, 445.833 1210.891, 455.808 1211.598, 465.784 1211.852, 469.375 1213.595, 479.222 1215.337, 489.069 1216.018, 492.917 1217.761, 502.764 1219.504, 512.611 1220.185, 516.458 1222.263, 526.240 1224.340, 536.022 1225.185, 540.000 1227.910, 549.622 1230.635, 559.243 1231.852, 563.542 1235.761, 572.746 1239.671, 581.950 1241.852, 587.083 1246.032, 596.168 1250.213, 605.252 1252.685, 610.625 1257.841, 619.193 1262.997, 627.762 1266.852, 634.167 1272.725, 642.260 1278.598, 650.354 1284.471, 658.447 1290.345, 666.541 1296.218, 674.635 1301.018, 681.250 1305.330, 690.273 1309.642, 699.296 1313.954, 708.318 1318.265, 717.341 1322.577, 726.364 1323.519, 728.333 1325.596, 738.115 1327.674, 747.897 1328.518, 751.875 1329.225, 761.850 1329.931, 771.825 1330.185, 775.417 1330.891, 785.392 1331.598, 795.367 1332.304, 805.342 1333.010, 815.317 1333.518, 822.500 1333.872, 832.494 1334.226, 842.488 1334.580, 852.481 1334.933, 862.475 1335.287, 872.469 1335.641, 882.463 1335.995, 892.456 1336.349, 902.450 1336.702, 912.444 1336.852, 916.667 1346.852, 916.667 1356.852, 916.667 1366.852, 916.667 1376.852, 916.667 1386.852, 916.667 1396.852, 916.667 1406.852, 916.667 1416.852, 916.667 1426.852, 916.667 1436.852, 916.667 1446.852, 916.667 1456.852, 916.667 1466.852, 916.667 1476.852, 916.667 1486.852, 916.667 1496.852, 916.667 1506.852, 916.667 1516.852, 916.667 1522.685, 916.667 1522.685, 906.667 1522.685, 896.667 1522.685, 886.667 1522.685, 876.667 1522.685, 866.667 1522.685, 856.667 1522.685, 846.667 1522.685, 836.667 1522.685, 832.604 1522.883, 822.606 1523.082, 812.608 1523.280, 802.610 1523.478, 792.612 1523.676, 782.614 1523.875, 772.616 1524.073, 762.618 1524.271, 752.620 1524.352, 748.542 1524.748, 738.550 1525.144, 728.557 1525.541, 718.565 1525.937, 708.573 1526.018, 706.511 1527.200, 696.581 1528.381, 686.651 1529.562, 676.721 1530.744, 666.791 1531.019, 664.479 1533.693, 654.844 1536.368, 645.208 1539.042, 635.572 1541.717, 625.937 1542.685, 622.448 1547.126, 613.488 1551.567, 604.529 1556.008, 595.569 1560.449, 586.609 1563.518, 580.417 1568.238, 571.601 1572.958, 562.784 1577.677, 553.968 1582.396, 545.152 1586.019, 538.386 1590.315, 529.356 1594.612, 520.326 1598.909, 511.296 1603.205, 502.266 1606.019, 496.354 1609.380, 486.936 1612.741, 477.518 1613.519, 475.339 1616.880, 465.920 1620.241, 456.502 1621.019, 454.323 1623.693, 444.687 1626.368, 435.052 1626.852, 433.307 1628.418, 423.431 1629.985, 413.554 1630.185, 412.292 1630.581, 402.300 1630.978, 392.307 1631.019, 391.276 1629.837, 381.346 1628.656, 371.416 1628.519, 370.261 1626.952, 360.384 1625.385, 350.508 1625.185, 349.245 1622.871, 339.516 1620.556, 329.788 1620.185, 328.229 1616.824, 318.811 1613.463, 309.393 1612.685, 307.214 1608.388, 298.184 1604.092, 289.154 1602.685, 286.198 1597.648, 277.560 1592.610, 268.921 1589.352, 263.333 1583.408, 255.292 1577.464, 247.250 1575.185, 244.167 1568.296, 236.919 1561.406, 229.670 1559.185, 227.333 1551.629, 220.783 1544.073, 214.232 1539.768, 210.500 1531.292, 205.195 1522.815, 199.889 1514.339, 194.584 1505.862, 189.279 1504.352, 188.333 1495.045, 184.676 1485.737, 181.019 1476.430, 177.362 1468.935, 174.417 1459.079, 172.724 1449.224, 171.031 1439.368, 169.338 1433.519, 168.333 1423.535, 167.757 1414.768, 167.250 " fill="none" stroke="rgb(0, 0, 0)" stroke-linecap="butt" stroke-linejoin="mitter" stroke-opacity="1.0" stroke-width="3.0" />
            <path d=" M 928.933, 655.834 938.457, 652.786 947.162, 650.000 956.410, 646.195 965.391, 642.500 974.150, 637.676 982.909, 632.851 991.668, 628.026 997.162, 625.000 1005.121, 618.946 1013.080, 612.892 1021.039, 606.838 1028.933, 600.834 1036.494, 594.289 1044.055, 587.744 1051.616, 581.200 1059.177, 574.655 1060.703, 573.334 1067.606, 566.098 1074.508, 558.862 1075.808, 557.500 1083.058, 550.613 1090.308, 543.725 1092.474, 541.667 1098.169, 533.447 1103.863, 525.226 1109.558, 517.006 1115.252, 508.786 1118.307, 504.375 1122.879, 495.481 1127.450, 486.587 1132.021, 477.693 1136.593, 468.799 1137.474, 467.083 1140.460, 457.540 1143.446, 447.996 1146.432, 438.452 1149.141, 429.792 1150.251, 419.854 1151.362, 409.916 1152.472, 399.977 1153.308, 392.500 1152.639, 382.523 1151.970, 372.545 1151.301, 362.567 1150.808, 355.208 1148.018, 345.605 1145.228, 336.003 1142.439, 326.399 1139.974, 317.917 1134.951, 309.270 1129.927, 300.624 1124.903, 291.977 1119.880, 283.331 1118.307, 280.625 1111.835, 273.003 1105.362, 265.380 1102.474, 261.979 1094.775, 255.599 1087.075, 249.218 1079.974, 243.333 1071.782, 237.599 1063.590, 231.864 1059.141, 228.750 1050.197, 224.278 1041.252, 219.806 1034.974, 216.667 1025.363, 213.904 1017.579, 211.667 1007.854, 209.338 1000.183, 207.500 990.284, 206.078 982.787, 205.000 972.787, 205.000 965.391, 205.000 955.458, 206.156 945.525, 207.312 936.745, 208.333 927.143, 211.127 917.541, 213.920 908.099, 216.667 898.934, 220.666 889.768, 224.666 880.603, 228.665 879.453, 229.167 870.810, 234.196 862.166, 239.225 853.523, 244.254 850.808, 245.833 842.895, 251.948 834.982, 258.062 832.474, 260.000 825.858, 267.499 819.974, 274.167 814.335, 282.425 808.695, 290.683 808.308, 291.250 803.923, 300.238 799.974, 308.333 796.578, 317.739 793.181, 327.145 789.785, 336.550 789.141, 338.333 787.028, 348.108 784.914, 357.882 784.141, 361.458 782.714, 371.356 781.287, 381.254 780.808, 384.583 780.089, 394.558 779.370, 404.532 779.141, 407.708 779.141, 417.708 779.141, 427.708 779.141, 430.833 779.663, 440.820 780.185, 450.806 780.707, 460.793 780.808, 462.708 782.855, 472.497 784.902, 482.285 786.949, 492.073 787.474, 494.584 790.004, 504.258 792.533, 513.933 795.062, 523.608 795.808, 526.459 799.026, 535.927 802.243, 545.395 805.461, 554.863 806.641, 558.334 809.991, 567.756 813.341, 577.178 816.691, 586.600 819.974, 595.834 824.036, 604.972 828.097, 614.110 828.308, 614.584 834.103, 622.733 839.898, 630.883 841.641, 633.334 849.012, 640.091 851.641, 642.500 860.295, 647.511 867.474, 651.667 877.053, 654.540 886.631, 657.414 892.474, 659.167 902.474, 659.167 910.703, 659.167 919.818, 658.334 928.933, 655.834 " fill="none" stroke="rgb(0, 0, 0)" stroke-linecap="butt" stroke-linejoin="mitter" stroke-opacity="1.0" stroke-width="3.0" />
            <path d=" M 561.997, 496.875 557.291, 505.699 554.497, 510.938 553.320, 520.868 552.830, 525.000 554.212, 534.904 555.330, 542.917 560.513, 551.469 563.664, 556.667 571.012, 563.450 574.497, 566.667 583.909, 570.046 590.747, 572.500 600.721, 573.226 602.205, 573.334 611.975, 571.202 613.664, 570.834 622.723, 566.599 631.782, 562.365 632.830, 561.875 641.335, 556.616 648.664, 552.084 656.323, 545.655 663.983, 539.226 671.643, 532.797 671.997, 532.500 677.741, 524.315 683.485, 516.129 688.664, 508.750 692.544, 499.534 696.425, 490.318 698.664, 485.000 699.710, 475.055 700.757, 465.110 701.804, 455.165 702.851, 445.220 703.664, 437.500 703.367, 427.505 703.071, 417.509 702.830, 409.375 700.799, 399.584 698.769, 389.792 696.997, 381.250 694.156, 371.662 692.830, 367.188 688.124, 358.364 685.330, 353.125 679.535, 344.976 675.330, 339.063 668.233, 332.018 661.164, 325.000 652.942, 319.308 650.330, 317.500 641.386, 313.028 635.330, 310.000 625.843, 306.838 617.830, 304.167 607.875, 303.219 600.330, 302.500 590.342, 302.976 582.830, 303.333 572.931, 304.748 565.330, 305.833 556.997, 309.583 549.080, 314.167 541.164, 319.792 536.997, 325.417 533.524, 334.794 532.830, 336.667 531.997, 345.833 533.664, 355.000 537.830, 364.167 544.366, 371.735 545.747, 373.333 553.519, 379.626 554.497, 380.417 563.539, 384.687 569.497, 387.500 578.551, 391.745 587.606, 395.989 596.164, 400.000 604.738, 405.145 613.313, 410.290 616.997, 412.500 623.664, 419.531 625.330, 426.563 624.497, 433.594 621.997, 440.625 617.830, 447.656 610.187, 454.105 609.497, 454.688 601.017, 459.988 592.537, 465.288 586.997, 468.750 579.507, 475.376 576.164, 478.334 569.605, 485.883 566.164, 489.844 561.997, 496.875 " fill="none" stroke="rgb(0, 0, 0)" stroke-linecap="butt" stroke-linejoin="mitter" stroke-opacity="1.0" stroke-width="3.0" />
            <path d=" M 394.810, 570.834 402.310, 572.500 412.242, 571.332 416.477, 570.834 425.536, 566.599 434.595, 562.365 435.643, 561.875 444.148, 556.616 451.477, 552.084 459.137, 545.655 466.796, 539.226 474.456, 532.797 474.810, 532.500 480.554, 524.315 486.299, 516.129 491.477, 508.750 495.357, 499.534 499.238, 490.318 501.477, 485.000 502.524, 475.055 503.570, 465.110 504.617, 455.165 505.664, 445.220 506.477, 437.500 506.181, 427.505 505.884, 417.509 505.643, 409.375 503.613, 399.584 501.582, 389.792 499.810, 381.250 496.969, 371.662 495.644, 367.188 490.938, 358.364 488.143, 353.125 482.348, 344.976 478.143, 339.063 471.046, 332.018 463.977, 325.000 455.755, 319.308 453.143, 317.500 444.199, 313.028 438.143, 310.000 428.657, 306.838 420.643, 304.167 410.688, 303.219 403.143, 302.500 393.155, 302.976 385.643, 303.333 375.744, 304.748 368.143, 305.833 359.810, 309.583 351.893, 314.167 343.977, 319.792 339.810, 325.417 336.337, 334.794 335.643, 336.667 334.810, 345.833 336.477, 355.000 341.477, 359.167 348.456, 361.667 358.456, 361.667 360.435, 361.667 370.069, 358.986 372.414, 358.333 381.405, 353.955 384.393, 352.500 393.838, 349.215 396.373, 348.333 406.373, 348.333 408.352, 348.333 417.986, 351.014 420.331, 351.667 428.680, 357.171 429.810, 357.917 435.643, 364.167 442.715, 371.238 444.810, 373.333 449.810, 380.417 455.643, 387.500 459.872, 396.562 461.477, 400.000 464.639, 409.487 465.643, 412.500 466.477, 419.531 467.162, 429.508 467.310, 431.667 467.310, 439.167 466.876, 449.157 466.477, 458.334 464.726, 468.179 463.977, 472.396 460.145, 481.633 458.143, 486.459 452.507, 494.719 446.871, 502.979 446.060, 504.167 438.486, 510.696 433.977, 514.584 425.198, 519.372 422.518, 520.834 413.353, 524.833 411.060, 525.834 402.417, 530.862 399.602, 532.500 392.135, 539.152 388.143, 542.709 383.143, 550.365 383.143, 558.021 387.310, 565.677 394.810, 570.834 " fill="none" stroke="rgb(0, 0, 0)" stroke-linecap="butt" stroke-linejoin="mitter" stroke-opacity="1.0" stroke-width="3.0" />
        </g>
    </g>
</svg>
